<?xml version="1.0" encoding="utf-8"?>
<svg version="1.1" xmlns="http://www.w3.org/2000/svg" width="340" height="80" viewBox="0 0 340 80">
<path fill="#040000" d="M9.4,17.5c0.5-0.1,0.8-0.1,0.9-0.1c0.9,0,2.3,0.1,4.3,0.2c1.1,0,1.8,0,2.2,0c0.6,0,1.8-0.1,3.6-0.2L27,17c1.7-0.2,3.7-0.2,6-0.2c4,0,7.3,0.6,9.7,1.7c2.4,1.1,4.2,2.9,5.5,5.4c1.3,2.4,2,4.9,2,7.3c0,4-1.4,7.5-4.3,10.5c-2.8,2.9-6.7,4.4-11.4,4.4c-1.3,0-2.5-0.1-3.4-0.4s-1.9-0.8-3.1-1.6c-0.5-0.3-0.8-0.7-0.9-1c0.1-0.2,0.2-0.3,0.4-0.4c0.4,0,0.7,0.1,1.1,0.2c0.9,0.3,2,0.5,3.3,0.5c2,0,4-0.5,5.8-1.5c1.8-1,3.2-2.4,4.1-4.3c0.9-1.8,1.4-3.8,1.4-5.9c0-2-0.5-4-1.5-5.8
c-1-1.9-2.3-3.4-3.9-4.5c-0.9-0.6-2.3-1.2-4.1-1.6c-1.8-0.4-3.3-0.7-4.3-0.7c-3.2,0-5.1,0.2-5.7,0.7v0.5l0.1,4.4v0.8c-0.1,0.7-0.1,1.8-0.1,3.2c0,5.3,0.1,8.5,0.2,9.8v2.1l0.5,17.7c0,0.3,0,0.7-0.1,1.4c-0.1,0.7-0.1,1.3-0.1,1.8c0,1.2,0.1,2.2,0.3,2.8
c0.6,0.2,2.4,0.6,5.4,1.3c1.4,0.3,2.2,0.5,2.3,0.6c0.2,0.1,0.4,0.2,0.5,0.5c-0.1,0.4-0.2,0.6-0.4,0.8c-0.2,0.1-0.5,0.2-1,0.2c-0.3,0-1-0.1-2.2-0.2c-2.2-0.2-4-0.3-5.2-0.3l-6.8,0.3l-3.9-0.3c-0.3,0-1,0-2.2,0.1v-1l5-1c0.8-0.2,1.3-0.5,1.5-0.7
c0.3-0.4,0.4-1.1,0.4-2.1c0-0.2,0-0.7,0-1.5c0-0.5,0-1.3,0-2.2c0-3-0.1-9.5-0.4-19.4c-0.1-4.6-0.2-9.4-0.2-14.1v-0.7c0-1.9-0.3-3-0.9-3.5c-1-0.8-3.3-1.5-7.2-2.1c0.1-0.3,0-0.6,0-0.8C9.2,18,9.3,17.9,9.4,17.5"/>
<path fill="#040000" d="M55.2,45.6v-1.2c1.8-0.5,2.8-0.8,2.9-0.9c1-0.4,2-1.1,3.1-2c1.1-0.9,2-1.9,2.8-3.1c0.3-0.1,0.6-0.1,0.8-0.1h0.5c0.1,1.3,0.2,2.3,0.2,2.9c0,0.1,0,0.8-0.1,1.9v2.2v12L65.3,70c0,1,0.1,1.7,0.5,2.1c0.4,0.4,1.4,0.9,3.2,1.3c1.1,0.3,1.9,0.6,2.5,0.8c0.1,0.2,0.1,0.4,0.1,0.5c0,0.2-0.1,0.4-0.2,0.6c-1.1,0-2.5-0.1-4.2-0.2c-2.3-0.2-3.8-0.3-4.6-0.3c-0.4,0-2.6,0.1-6.6,0.2c-0.8,0-1.6,0.1-2.4,0.2c-0.1,0-0.4,0-0.7-0.1c-0.1-0.2-0.2-0.4-0.2-0.5c0-0.4,0.3-0.7,0.8-0.9c0.1-0.1,1.5-0.4,4.2-1c0.9-0.2,1.5-0.4,1.7-0.8c0.5-0.6,0.7-1.5,0.7-2.8c0.1-2.1,0.1-8,0.1-17.5c0-1.9-0.1-3.1-0.2-3.6c-0.1-0.3-0.5-0.7-1.1-1.1C58.4,46.5,57.2,46.1,55.2,45.6 M58.7,24.1c0-0.9,0.4-1.7,1.1-2.4c0.7-0.7,1.6-1,2.6-1s1.9,0.4,2.7,1.1c0.8,0.7,1.2,1.6,1.2,2.4c0,0.9-0.5,3.4-1.3,4.1c-0.8,0.8-1.5-0.6-2.6-0.6c-1,0-1.9-0.3-2.6-1C59.1,26.1,58.7,25.3,58.7,24.1"/>
<path fill="#040000" d="M71.3,36.9c-0.1-0.4-0.1-0.7-0.1-1v-0.6c0.4-0.1,0.9-0.2,1.4-0.2l1.5-0.1c2.4,0,3.9-0.1,4.5-0.1c1.9-0.1,3.8-0.2,5.8-0.4c1.2-0.1,2-0.1,2.2-0.2l1-0.1c0.2,0.4,0.3,0.7,0.3,0.9c0,0.1,0,0.3-0.1,0.6l-0.6,0.2c-2,0.3-3.2,0.6-3.8,1c-0.2,0.2-0.3,0.3-0.3,0.6c0,0.4,0.4,1.1,1.1,1.9c3.4,4,5.8,6.6,7,7.8c2.4-3.6,3.9-5.9,4.3-6.9c0.4-1,0.7-1.8,0.6-2.4c0-0.6-0.3-1.2-0.8-1.6c-0.5-0.4-1.8-0.7-3.7-0.9c-0.2-0.3-0.4-0.6-0.4-0.8l0.1-0.4l1.1-0.1c0.3,0,0.8,0,1.5,0c1.2,0,2.4,0,3.6-0.1c0.6,0,1.7-0.1,3.1-0.2c1.5-0.1,2.6-0.2,3.4-0.2l1.9-0.1c0.4,0.1,0.6,0.4,0.6,0.6c0,0.1,0,0.3-0.1,0.5c-0.4,0.1-1,0.3-1.6,0.4c-1.5,0.3-2.9,0.9-4.3,1.9c-1,0.7-2,1.8-3,3.2l-5.3,8.2l6.4,7.2c2.9,3.6,4.7,5.7,5.4,6.3c0.7,0.6,1.4,1.1,2.1,1.5c0.7,0.4,1.8,0.7,3.2,1c0,0.3,0.1,0.6,0.1,0.9c0,0.2,0,0.5-0.1,0.8c-0.5,0-3,0.1-7.6,0.2c-0.3,0-1.6,0.1-4,0.3c-0.7,0.1-1.5,0.1-2.1,0.1s-1.4,0-2.4,0l0.1-1.3c0.4-0.1,0.9-0.2,1.4-0.4c1.4-0.4,2.4-0.8,3-1.3c0.3-0.3,0.5-0.7,0.5-1c0-0.6-2-3.1-6-7.4l-2.7-2.6c-1.1,1.2-2.3,2.9-3.6,5.1c-0.7,1.3-1.4,2.2-1.8,2.9c-0.9,1.1-1.3,2.1-1.3,2.8c0,0.2,0.2,0.5,0.5,0.7c0.3,0.2,1.3,0.5,2.9,0.8c1.1,0.2,1.9,0.3,2.3,0.4c0.1,0.4,0.2,0.6,0.2,0.8c0,0.2,0,0.4,0,0.8c-2.1,0-4.2,0.1-6.2,0.2c-2.5,0.1-4.4,0.3-5.5,0.4c-1.1,0.1-1.9,0.2-2.1,0.2c-0.3,0-0.9,0-1.6,0c-0.1-0.4-0.2-0.7-0.2-0.9l0.1-0.5c0.4-0.2,0.9-0.4,1.4-0.5c1.8-0.3,3.4-1.1,4.8-2.3c1.4-1.3,4.3-5.4,8.9-12.3l-12.1-13c-0.2-0.2-0.4-0.3-0.6-0.5c-0.5-0.2-1.1-0.4-1.8-0.5C72.6,37.1,71.8,37,71.3,36.9"/>
<path fill="#040000" d="M140.2,48.8L123.6,49h-3.2c-1.3,0-2.6,0.1-3.9,0.2c-0.2,0.8-0.4,1.4-0.4,1.7v0.4v0.4v2c0,1.7,0.5,3.8,1.6,6.2c1.1,2.5,2.6,4.3,4.6,5.6c2,1.3,4.4,2,7.4,2.1c1.6-0.1,2.8-0.3,3.8-0.6c0.9-0.3,2.3-1,4-2.1l3-2.4l0.3,1.7c0,0.2,0,0.4,0,0.6c-1.2,1.6-2.8,3-4.7,4.2c-1.9,1.2-3.8,2.1-5.8,2.6c-0.9,0.2-2.5,0.4-4.6,0.4c-2,0-3.9-0.4-5.8-1.2c-2.8-1.2-5-3.2-6.7-5.9c-1.6-2.7-2.4-6-2.4-9.8c0-1.2,0.2-2.8,0.7-4.7s1.3-3.9,2.5-6.1c0.8-1.5,1.8-2.7,2.9-3.6c1.7-1.3,3.1-2.3,4.4-2.8c1.8-0.7,3.9-1.1,6.3-1.1c2.6,0,4.7,0.5,6.3,1.4c2.2,1.2,3.9,2.9,5,4.8c1.1,1.9,1.6,3.8,1.6,5.4L140.2,48.8M117,47.3h2c1.4,0,5.6-0.2,12.6-0.7c1.1-0.1,1.8-0.2,2-0.3c0.5-0.5,0.7-1,0.7-1.4c0-0.9-0.3-1.8-0.8-2.9c-0.6-1.1-1.4-1.9-2.6-2.5c-1.1-0.6-2.5-0.9-4-0.9c-3.2,0-5.8,1.2-7.7,3.6C117.8,44,117,45.7,117,47.3"/>
<path fill="#040000" d="M143.2,19.4v-0.9c0.8-0.3,1.6-0.5,2.6-0.8c1.4-0.4,3.4-1.1,6.2-2h2c0,1.3,0,2.1,0,2.3c0,22.7-0.1,36.3-0.2,40.7c-0.1,2.6-0.1,3.9-0.1,4.1c0,3.1,0.1,4.8,0.4,5.2c0.3,0.5,1.3,0.8,3.1,1c1.7,0.2,2.7,0.4,3,0.6c0.2,0.1,0.3,0.3,0.3,0.6c0,0.3-0.1,0.5-0.2,0.6c-0.1,0.1-0.4,0.2-0.7,0.2c-0.2,0-1.6,0-4.4-0.1l-5.4-0.2l-7,0.3c-0.4,0-0.8-0.1-1-0.3c-0.2-0.1-0.3-0.3-0.3-0.6s0.1-0.5,0.3-0.6c0.2-0.1,1.2-0.3,3-0.6c1.8-0.3,2.9-0.6,3.1-0.8c0.3-0.2,0.4-0.7,0.5-1.4c0.1-1,0.2-3.8,0.2-8.4v-9.5l0.1-9.9V29l0.1-4.9c0-1-0.2-1.7-0.5-2.1c-0.3-0.4-1-0.9-1.9-1.3C144.7,20,143.7,19.6,143.2,19.4"/>
<path fill="#040000" d="M217.4,27l0.4,5.8c0.2,1.8,0.2,3,0.2,3.6l-1.1,0.2c-1.7-3.9-3.8-6.8-6.4-8.7c-2.5-1.9-5.6-2.9-9.3-2.9c-4.5,0-8,0.5-10.5,1.6c-3.6,1.6-6.7,4.3-9.3,8.1c-2.6,3.9-3.9,8.5-3.9,13.9c0,3.1,0.5,6,1.4,8.5c0.9,2.5,2.3,4.8,4,7c1.7,2.2,3.8,4,6.1,5.6c1.5,1,3.4,1.8,5.5,2.4c1.2,0.3,3,0.4,5.4,0.4c1.5,0,3.2-0.2,5.1-0.7c1.9-0.4,3.3-1,4.2-1.7c0.9-0.7,1.6-1.5,1.9-2.5c0.3-0.9,0.5-2.7,0.5-5.4c0-4.4-0.3-7-0.9-7.7c-0.6-0.7-2.4-1.2-5.5-1.4l-1.5-0.1h-1c-0.2,0-0.4-0.1-0.6-0.1l-0.6-1c0-0.1,0.1-0.3,0.3-0.5c1.3-0.2,4.2-0.3,8.6-0.3c1,0,2.6,0,4.9,0.1l3.9,0.2h3.6c0.7,0,1.5,0,2.5,0.1c0.2,0,0.3,0.1,0.3,0.1c0.1,0.1,0.1,0.2,0.1,0.3c0,0.3-0.1,0.6-0.2,1.1c-1.1,0.2-1.9,0.3-2.5,0.3h-2.5c-0.8,0-1.5,0.3-2,0.9c-0.3,0.3-0.4,1.2-0.4,2.9v5c0,3.4-0.1,5.6-0.4,6.6c-0.2,0.6-0.5,1.1-1,1.5c-0.5,0.4-1.5,1-3.1,1.6c-2.2,0.9-4.2,1.5-6,1.8c-3.4,0.6-6.6,0.9-9.8,0.9c-5.1,0-9.2-0.6-12.4-1.9c-3.2-1.3-6-3.1-8.3-5.4c-2.3-2.3-4-4.6-5-7c-1.5-3.4-2.3-7-2.3-10.5c0-4.5,1.2-8.8,3.5-13.1c2.4-4.3,6.2-7.8,11.4-10.4c3.7-1.9,8.7-2.8,15.1-2.8c4.4,0,8,0.4,10.8,1.1C213.5,25.3,215.7,26,217.4,27"/>
<path fill="#040000" d="M227.2,64.4l-0.1-0.6c0-0.2,0.2-0.5,0.4-0.8l2.5-0.3l3.5-0.3c0.3-0.1,0.5-0.3,0.6-0.5c0.2-0.3,0.4-1.4,0.5-3.2c0.8-9.4,1.2-14.8,1.3-16.2c0-1.5-0.2-2.4-0.5-2.8c-0.4-0.4-1.3-0.8-2.9-1.2c-0.9-0.2-1.7-0.5-2.2-0.7l0.3-1.2c3-0.9,5-1.8,6.1-2.6c1.5-1.1,2.8-2.7,3.9-4.6l1.4,0.2c0,1.4-0.1,4.5-0.6,9.2l-0.1,0.7c0,0.2,0,0.4,0,0.8c1.2-1.8,2.7-3.4,4.4-4.9l1-0.9c0.4-0.4,0.8-0.7,1.2-0.9c2-1,3.5-1.4,4.5-1.4c1.2,0.1,2.2,0.6,2.9,1.5c0.7,0.9,1,1.9,0.9,3.1c-0.1,0.9-0.4,1.6-1,2.1c-0.8,0.6-1.7,0.9-2.7,0.8c-0.4,0-1.3-0.3-2.5-0.9c-1.2-0.6-2.1-0.9-2.5-0.9c-0.8-0.1-1.3,0-1.6,0.2c-0.8,0.5-1.9,1.7-3.1,3.5c-1,1.3-1.5,2.6-1.6,3.8l-0.4,6.9l-0.6,8.2c0,0.9,0.1,1.6,0.2,1.9c0.1,0.2,0.3,0.5,0.8,0.8c3,0.5,4.7,0.8,5.2,1c0.4,0.1,0.7,0.1,0.9,0.2c1.2,0.1,2,0.4,2.4,0.7c0.2,0.2,0.3,0.4,0.3,0.7c0,0.2-0.1,0.4-0.4,0.6C242,65.2,234.7,64.9,227.2,64.4"/>
<path fill="#040000" d="M259.4,29.5v-1.2c1.8-0.5,2.8-0.8,2.9-0.9c1-0.4,2-1.1,3.1-2c1.1-0.9,2-1.9,2.8-3.1c0.3-0.1,0.6-0.1,0.8-0.1h0.5c0.1,1.3,0.2,2.3,0.2,2.9c0,0.1,0,0.8-0.1,1.9v2.2v12l-0.1,12.7c0,1,0.1,1.7,0.5,2.1c0.4,0.4,1.4,0.9,3.2,1.3c1.1,0.3,1.9,0.6,2.5,0.8c0.1,0.2,0.1,0.4,0.1,0.5c0,0.2-0.1,0.4-0.2,0.6c-1.1,0-2.5-0.1-4.2-0.2c-2.3-0.2-3.8-0.3-4.6-0.3c-0.4,0-2.6,0.1-6.6,0.2c-0.8,0-1.6,0.1-2.4,0.2c-0.1,0-0.4,0-0.7-0.1c-0.1-0.2-0.2-0.4-0.2-0.5c0-0.4,0.3-0.7,0.8-0.9c0.1-0.1,1.5-0.4,4.2-1c0.9-0.2,1.5-0.4,1.7-0.8c0.5-0.6,0.7-1.5,0.7-2.8c0.1-2.1,0.1-8,0.1-17.5c0-1.9-0.1-3.1-0.2-3.6c-0.1-0.3-0.5-0.7-1.1-1.1C262.6,30.4,261.4,29.9,259.4,29.5 M262.9,8c0-0.9,0.4-1.7,1.1-2.4c0.7-0.7,1.6-1,2.6-1s1.9,0.4,2.7,1.1c0.8,0.7,1.2,1.6,1.2,2.4c0,0.9,0,4.4-0.7,5.2c-0.8,0.8-2.1-1.6-3.1-1.6s-1.9-0.3-2.6-1C263.3,10,262.9,9.1,262.9,8"/>
<path fill="#040000" d="M306.2,42.5v-1.2v-4.7v-8.9c0-2.5-0.3-4-0.8-4.7c-0.5-0.7-2.1-1.4-4.7-2.1c-0.2-0.1-0.5-0.1-0.9-0.2v-0.4c0-0.3,0-0.6,0.1-0.9c3.7-0.4,6.8-1,9.4-1.9h2.1c0.1,1.8,0.2,3.9,0.2,6.1l-0.2,15.5l0.3,17.5l-0.1,9.3c0,1.9,0.1,3,0.4,3.2c0.5,0.5,1.7,0.8,3.5,0.8c0.4,0,0.9,0,1.5,0.1v0.7c0,0.2,0,0.4,0,0.6c-0.8,0.2-1.7,0.4-2.6,0.5l-5.8,1.1c-0.9,0.2-1.5,0.2-2.1,0.2v-3.9c-0.5,0.1-1.2,0.4-2.1,0.8c-4.2,1.8-8,2.7-11.6,2.7c-2.1,0-4.3-0.7-6.5-2.1c-2.2-1.4-3.9-3.3-5.1-5.8c-1.2-2.5-1.8-5-1.8-7.6c0-2.3,0.4-4.5,1.2-6.6c0.8-2.1,1.8-3.9,3.1-5.3c0.8-0.9,1.9-1.8,3.4-2.7c1.5-0.9,2.7-1.5,3.7-1.7c2.4-0.6,4-0.9,4.8-0.9c3.6,0,6.6,0.5,8.9,1.6C305.3,42.1,305.8,42.3,306.2,42.5 M306.3,67.3c0.1-1.8,0.2-5.5,0.2-11.1c0-4.8-0.2-7.8-0.7-9c-0.5-1.2-1.5-2.4-3.3-3.5c-1.8-1.1-3.7-1.7-5.9-1.7c-3.1,0-5.7,1.2-7.8,3.6c-2.1,2.4-3.2,5.9-3.2,10.6c0,4.1,1.2,7.4,3.5,9.8c2.3,2.4,5.2,3.7,8.6,3.7c2,0,3.8-0.3,5.4-0.8C304.6,68.3,305.7,67.8,306.3,67.3"/>
<path fill="#040000" d="M330.8,69.8c0,2.1-2.1,5.3-4.2,5.3c-2.1,0-3.4-3.2-3.4-5.3s1.7-3.8,3.8-3.8S330.8,67.7,330.8,69.8"/>
</svg>